<svg xmlns="http://www.w3.org/2000/svg" width="101" height="21" fill="none"><g clip-path="url(#a)"><path fill="#F0F0F0" d="M0 4.667A4.667 4.667 0 0 1 4.667 0h91.426a4.667 4.667 0 0 1 4.667 4.667v11.666A4.667 4.667 0 0 1 96.093 21H4.667A4.667 4.667 0 0 1 0 16.333z"/><path fill="#000" d="M9.545 14.583H8.03l-2.999-9.1h1.412l2.345 7.654 2.345-7.654h1.4zm5.76.187c-1.797 0-2.998-1.342-2.998-3.232 0-1.866 1.166-3.208 2.998-3.208 1.482 0 2.73 1.132 2.73 3.138v.479h-4.422c.082 1.096.63 1.808 1.692 1.808.77 0 1.295-.455 1.4-.887h1.272c-.187 1.039-1.249 1.902-2.672 1.902m-1.68-3.698h3.127c-.035-.98-.63-1.645-1.482-1.645-.992 0-1.505.641-1.645 1.645m7.044 3.511h-1.225V8.517h1.225v1.575c.397-1.237 1.225-1.645 2.45-1.645V9.66c-1.435 0-2.45.432-2.45 1.948zM24.7 7.222c-.513 0-.863-.35-.863-.864 0-.513.35-.851.863-.851.525 0 .863.338.863.851 0 .514-.338.864-.863.864m.642 7.361H24.07V8.517h1.272zm3.732 0h-1.272v-4.97h-1.318V8.517h1.318v-.689c0-1.691.758-2.555 2.322-2.461l.443.011v1.097h-.233c-.899 0-1.249.327-1.26 1.213v.829h1.505v1.096h-1.505zm3.305-7.361c-.513 0-.863-.35-.863-.864 0-.513.35-.851.863-.851.525 0 .863.338.863.851 0 .514-.338.864-.863.864m.642 7.361h-1.272V8.517h1.272zm4.467.187c-1.797 0-2.999-1.342-2.999-3.232 0-1.866 1.167-3.208 2.999-3.208 1.481 0 2.73 1.132 2.73 3.138v.479h-4.422c.082 1.096.63 1.808 1.692 1.808.77 0 1.295-.455 1.4-.887h1.271c-.186 1.039-1.248 1.902-2.671 1.902m-1.68-3.698h3.126c-.035-.98-.63-1.645-1.481-1.645-.992 0-1.505.641-1.645 1.645m8.338 3.698c-1.622 0-2.707-1.283-2.707-3.243 0-1.937 1.085-3.197 2.707-3.197.782 0 1.668.443 2.088 1.143V5.367h1.272v9.216h-1.272v-.968c-.408.712-1.306 1.155-2.088 1.155m.268-1.097c1.108 0 1.855-.84 1.855-2.135 0-1.283-.746-2.111-1.855-2.111-1.015 0-1.692.828-1.692 2.111 0 1.295.677 2.135 1.692 2.135m11.043 1.097c-.782 0-1.68-.443-2.088-1.155v.968h-1.272V5.367h1.272v4.106c.42-.7 1.306-1.143 2.088-1.143 1.622 0 2.707 1.26 2.707 3.197 0 1.96-1.085 3.243-2.707 3.243m-.268-1.097c1.015 0 1.691-.84 1.691-2.135 0-1.283-.676-2.111-1.691-2.111-1.109 0-1.855.828-1.855 2.111 0 1.295.746 2.135 1.855 2.135m4.054 3.244v-1.109c.875 0 1.26-.14 1.61-1.061l-2.194-6.23h1.377l1.482 4.655 1.47-4.655h1.353l-2.287 6.463c-.56 1.587-1.283 1.937-2.811 1.937"/><mask id="b" width="30" height="13" x="67" y="5" maskUnits="userSpaceOnUse" style="mask-type:luminance"><path fill="#fff" d="M96.093 5.367H67.667v11.666h28.426z"/></mask><g fill="#000" mask="url(#b)"><path d="M71.052 10.498c-1.142-.248-1.651-.344-1.651-.784q0-.62 1.033-.62c.606 0 1.049.265 1.375.783.024.04.075.054.117.032l1.285-.648a.09.09 0 0 0 .037-.126c-.534-.924-1.519-1.43-2.817-1.43-1.705 0-2.764.84-2.764 2.173 0 1.417 1.29 1.775 2.433 2.023 1.145.247 1.655.344 1.655.784 0 .439-.372.646-1.114.646-.687 0-1.195-.313-1.503-.922a.09.09 0 0 0-.122-.04l-1.282.635a.09.09 0 0 0-.04.123c.51 1.022 1.553 1.597 2.948 1.597 1.776 0 2.849-.826 2.849-2.2 0-1.376-1.296-1.776-2.439-2.023zM77.94 7.706c-.728 0-1.372.258-1.835.717-.029.028-.077.008-.077-.032V5.457a.09.09 0 0 0-.09-.09h-1.609a.09.09 0 0 0-.09.09v9.105c0 .051.04.091.09.091h1.609c.05 0 .09-.04.09-.09v-3.995c0-.771.592-1.363 1.39-1.363s1.376.58 1.376 1.363v3.994c0 .051.04.091.091.091h1.608c.051 0 .091-.04.091-.09v-3.995c0-1.678-1.1-2.862-2.643-2.862M83.847 7.444c-.874 0-1.692.268-2.279.653a.09.09 0 0 0-.03.122l.71 1.21a.09.09 0 0 0 .124.032 2.83 2.83 0 0 1 1.477-.406c1.404 0 2.436.99 2.436 2.297 0 1.114-.826 1.94-1.873 1.94-.853 0-1.445-.497-1.445-1.197 0-.402.17-.73.615-.963a.09.09 0 0 0 .035-.125l-.668-1.132a.09.09 0 0 0-.11-.038c-.896.332-1.525 1.131-1.525 2.204 0 1.622 1.294 2.833 3.097 2.833 2.107 0 3.62-1.458 3.62-3.55 0-2.241-1.761-3.88-4.184-3.88M92.737 7.692c-.814 0-1.541.3-2.071.83a.045.045 0 0 1-.077-.033v-.636a.09.09 0 0 0-.091-.09H88.93a.09.09 0 0 0-.09.09v9.091c0 .05.04.09.09.09h1.608a.09.09 0 0 0 .091-.09v-2.981c0-.04.048-.06.077-.034.529.492 1.229.78 2.03.78 1.886 0 3.358-1.527 3.358-3.509s-1.473-3.508-3.358-3.508m-.305 5.477c-1.073 0-1.886-.853-1.886-1.981s.811-1.981 1.886-1.981 1.885.839 1.885 1.98c0 1.143-.8 1.982-1.887 1.982z"/></g></g><defs><clipPath id="a"><path fill="#fff" d="M0 0h100.917v21H0z"/></clipPath></defs></svg>